<?xml version="1.0" standalone="no"?>
<!DOCTYPE svg PUBLIC "-//W3C//DTD SVG 1.1//EN" "http://www.w3.org/Graphics/SVG/1.1/DTD/svg11.dtd">
<svg xmlns="http://www.w3.org/2000/svg">
<metadata>Copyright (C) 2016 by original authors @ fontello.com</metadata>
<defs>
<font id="ss-standard" horiz-adv-x="1000" >
<font-face font-family="ss-standard" font-weight="400" font-stretch="normal" units-per-em="1000" ascent="850" descent="-150" />
<missing-glyph horiz-adv-x="1000" />
<glyph glyph-name="glyph" unicode="&#xe800;" d="m0 788h1000v-1001h-1000v1001z m787-125h-574l287-287z m-662-88v-574l287 287z m88-663h574l-287 288z m662 89v574l-287-287z" horiz-adv-x="1000" />
<glyph glyph-name="glyph-1" unicode="&#xe801;" d="m604-213h-208q-9 0-15 6t-6 15v355h-354q-9 0-15 5t-6 15v209q0 9 6 15t15 6h354v354q0 9 6 15t15 6h208q9 0 15-6t6-15v-354h354q9 0 15-6t6-15v-209q0-9-6-15t-15-5h-354v-355q0-9-6-15t-15-6z" horiz-adv-x="1000" />
<glyph glyph-name="glyph-2" unicode="&#xe802;" d="m979 163h-958q-9 0-15 5t-6 15v209q0 9 6 15t15 6h958q9 0 15-6t6-15v-209q0-9-6-15t-15-5z" horiz-adv-x="1000" />
<glyph glyph-name="glyph-3" unicode="&#xe803;" d="m813 225h125q25 0 44-18t18-44v-251q0-25-18-44t-44-18h-313q-25 0-44 18t-18 44v313q0 220 115 360t301 140q9 0 15-6t6-15v-188q0-19-18-21-81-6-125-76t-44-194z m-563 0h125q26 0 44-18t19-44v-251q0-25-19-44t-44-18h-312q-26 0-44 18t-19 44v313q0 220 115 360t302 140q9 0 15-6t6-15v-188q0-19-19-21-81-6-125-76t-44-194z" horiz-adv-x="1000" />
<glyph glyph-name="glyph-4" unicode="&#xe804;" d="m500 788q207 0 354-147t146-353-146-354-354-147-354 147-146 354 146 353 354 147z m63-813v354h-125v-354h125z m-63 458q35 0 59 25t24 59-24 59-59 24-59-24-24-59 24-59 59-25z" horiz-adv-x="1000" />
<glyph glyph-name="glyph-5" unicode="&#xe805;" d="m961-15q-55 69-176 102t-285 34v-188q0-12-12-18-6-3-9-3-8 0-13 5l-458 354q-8 6-8 17t8 16l458 354q11 8 22 2t12-18v-188q232 0 362-122t138-337q0-15-16-20h-5q-8 0-18 10z" horiz-adv-x="1000" />
<glyph glyph-name="glyph-6" unicode="&#xe806;" d="m39-15q-10-10-18-10h-5q-16 5-16 20 8 214 138 337t362 122v188q0 12 12 18t22-2l458-354q8-6 8-16t-8-17l-458-354q-5-5-13-5-2 0-9 3-12 6-12 18v188q-163 0-285-34t-176-102z" horiz-adv-x="1000" />
<glyph glyph-name="glyph-7" unicode="&#xe807;" d="m958 288q0-190-134-325t-324-134q-177 0-308 119h-1v1q-6 6-6 14 0 10 5 14l1 1 89 90q14 14 28 0 83-72 192-72 120 0 206 86t86 206-86 206-206 85q-110 0-191-72l123-121q9-9 4-23-5-13-19-13h-396q-9 0-15 6t-6 15v396q0 14 13 19 14 5 23-4l155-156q132 120 309 120 190 0 324-134t134-324z" horiz-adv-x="1000" />
<glyph glyph-name="glyph-8" unicode="&#xe808;" d="m1000 767v-396q0-9-6-15t-15-6h-396q-14 0-19 13-5 14 4 23l123 121q-81 72-191 72-120 0-206-85t-86-206 86-206 206-86q108 0 192 72 14 14 28 0l89-90v-1q6-4 6-14 0-8-6-14 0-1-1-1-131-119-308-119-190 0-324 134t-134 325 134 324 324 134q177 0 309-120l155 156q9 9 23 4 13-5 13-19z" horiz-adv-x="1000" />
<glyph glyph-name="glyph-9" unicode="&#xe809;" d="m994 377l-243-242 62-323q2-14-10-21-4-4-11-4t-12 4l-280 180-280-180q-12-8-23 0-12 7-9 21l61 323-243 242q-10 9-5 23 6 13 20 13h319l140 361q6 14 20 14t20-14l140-361h319q14 0 20-13 5-14-5-23z" horiz-adv-x="1000" />
<glyph glyph-name="glyph-10" unicode="&#xe80a;" d="m999 279q-6-12-20-12h-104v-459q0-9-6-15t-15-6h-208q-9 0-15 6t-6 15v355h-250v-355q0-9-6-15t-15-6h-208q-9 0-15 6t-6 15v459h-104q-14 0-20 12-3 13 5 24l479 479q15 15 30 0l479-479q8-11 5-24z" horiz-adv-x="1000" />
<glyph glyph-name="glyph-11" unicode="&#xe80b;" d="m979 350q9 0 15-6t6-15v-83q0-9-6-15t-15-6h-110q-18-118-103-203t-203-105v-109q0-9-6-15t-15-6h-84q-9 0-15 6t-5 15v109q-119 20-204 105t-104 203h-109q-9 0-15 6t-6 15v83q0 9 6 15t15 6h109q19 118 104 203t204 104v110q0 9 5 15t15 6h84q9 0 15-6t6-15v-110q118-20 202-104t104-203h110z m-479-312q103 0 177 73t73 177-73 176-177 74-176-74-74-176 74-177 176-73z" horiz-adv-x="1000" />
<glyph glyph-name="glyph-12" unicode="&#xe80c;" d="m938 663q25 0 44-19t18-44v-625q0-26-18-44t-44-19h-581q-7 0-16 6l-322 326q-19 18-19 44t19 44l322 325q9 6 16 6h581z m-63-542l-167 167 167 166-83 84-167-167-167 167-83-84 167-166-167-167 83-83 167 166 167-166z" horiz-adv-x="1000" />
<glyph glyph-name="glyph-13" unicode="&#xe80d;" d="m938 788q25 0 44-19t18-44v-500q0-25-18-44t-44-18h-105v208h-666v-208h-104q-26 0-44 18t-19 44v500q0 26 19 44t44 19h875z m-125-250q25 0 44 18t18 44-18 44-44 19-44-19-19-44 19-44 44-18z m-563-250v-480q0-9 6-15t15-6h458q9 0 15 6t6 15v480h-500z" horiz-adv-x="1000" />
<glyph glyph-name="glyph-14" unicode="&#xe80e;" d="m21-213q-9 0-15 6t-6 15v125q0 10 6 15t15 6h958q9 0 15-6t6-15v-125q0-9-6-15t-15-6h-958z m0 376q-13 0-19 11-6 13 3 22l479 583q4 9 16 9 9 0 16-9l479-583q5-5 5-13 0-2-2-9-6-11-19-11h-958z" horiz-adv-x="1000" />
<glyph glyph-name="glyph-15" unicode="&#xe80f;" d="m1000 288q0-12-8-17l-583-479q-10-8-22-2-12 6-12 18v264l-341-280q-10-8-22-2-12 6-12 18v959q0 12 12 18 7 3 9 3 8 0 13-5l341-280v264q0 12 12 18 7 3 9 3 8 0 13-5l583-479q8-7 8-16z" horiz-adv-x="1000" />
<glyph glyph-name="glyph-16" unicode="&#xe810;" d="m0 288q0 9 8 16l583 479q5 5 13 5 3 0 9-3 12-6 12-18v-264l341 280q5 5 13 5 3 0 9-3 12-6 12-18v-959q0-12-12-18-12-6-22 2l-341 280v-264q0-12-12-18-12-6-22 2l-583 479q-8 5-8 17z" horiz-adv-x="1000" />
<glyph glyph-name="glyph-17" unicode="&#xe811;" d="m771 767q0 9 6 15t15 6h125q9 0 15-6t6-15v-959q0-9-6-15t-15-6h-125q-10 0-15 6t-6 15v959z m-708 0q0 12 11 18 13 6 22-2l583-479q9-7 9-16 0-12-9-17l-583-479q-5-5-13-5-2 0-9 3-11 6-11 18v959z" horiz-adv-x="1000" />
<glyph glyph-name="glyph-18" unicode="&#xe812;" d="m229 767v-959q0-9-6-15t-15-6h-125q-9 0-15 6t-5 15v959q0 9 5 15t15 6h125q10 0 15-6t6-15z m709 0v-959q0-12-12-18-7-3-9-3-8 0-13 5l-583 479q-8 5-8 17 0 9 8 16l583 479q9 8 22 2 12-6 12-18z" horiz-adv-x="1000" />
<glyph glyph-name="glyph-19" unicode="&#xe813;" d="m932 538l-70-69q76-110 76-244 0-182-128-310t-310-128-310 128-127 310q0 147 88 263t224 156v123q0 9 6 15t15 6h208q9 0 15-6t6-15v-123q67-20 119-57l70 69q15 13 29 0l89-90q15-15 0-28z m-349-313v313h-83l-81-294q-2-12-2-19 0-35 24-59t59-24 59 24 24 59z" horiz-adv-x="1000" />
<glyph glyph-name="glyph-20" unicode="&#xe814;" d="m500 788q207 0 354-147t146-353-146-354-354-147-354 147-146 354 146 353 354 147z m221-722l59 60-204 203-76 334h-83v-375q0-35 24-59 5-5 14-12z" horiz-adv-x="1000" />
<glyph glyph-name="glyph-21" unicode="&#xe815;" d="m933 32q6-8 6-15t-6-15l-147-147q-8-6-15-6t-15 6l-256 255-256-255q-8-6-15-6t-15 6l-147 147q-6 8-6 15t6 15l256 256-256 255q-6 8-6 15t6 15l147 147q8 6 15 6t15-6l256-255 256 255q8 6 15 6t15-6l147-147q6-8 6-15t-6-15l-256-255z" horiz-adv-x="1000" />
<glyph glyph-name="glyph-22" unicode="&#xe816;" d="m1000-192q0-9-6-15t-15-6h-958q-9 0-15 6t-6 15v959q0 9 6 15t15 6h958q9 0 15-6t6-15v-959z" horiz-adv-x="1000" />
<glyph glyph-name="glyph-23" unicode="&#xe817;" d="m995 9q9-10 3-22-6-12-19-12h-958q-13 0-19 12-6 12 3 22l479 583q4 8 16 8 9 0 16-8z" horiz-adv-x="1000" />
<glyph glyph-name="glyph-24" unicode="&#xe818;" d="m21-213q-6 0-12 4-9 6-9 17v959q0 11 9 17 11 7 21 1l958-479q12-6 12-18t-12-19l-958-479q-7-3-9-3z" horiz-adv-x="1000" />
<glyph glyph-name="glyph-25" unicode="&#xe819;" d="m221 783l583-479q9-7 9-16 0-12-9-17l-583-479q-9-8-22-2-11 6-11 18v959q0 12 11 18 13 6 22-2z" horiz-adv-x="1000" />
<glyph glyph-name="glyph-26" unicode="&#xe81a;" d="m333 788q7 0 15-6l480-479q15-15 0-30l-480-480q-15-15-30 0l-145 146q-16 15 0 30l318 319-318 318q-16 15 0 30l145 146q8 6 15 6z" horiz-adv-x="1000" />
<glyph glyph-name="glyph-27" unicode="&#xe81b;" d="m995 566l-479-583q-7-8-16-8-12 0-16 8l-479 583q-9 10-3 22 6 12 19 12h958q13 0 19-12 6-12-3-22z" horiz-adv-x="1000" />
<glyph glyph-name="glyph-28" unicode="&#xe81c;" d="m779 783q9 8 22 2 12-6 12-18v-959q0-12-12-18-13-6-22 2l-583 479q-8 5-8 17 0 9 8 16z" horiz-adv-x="1000" />
<glyph glyph-name="glyph-29" unicode="&#xe81d;" d="m667-213q-7 0-15 6l-479 480q-16 15 0 30l479 479q15 15 30 0l146-146q15-15 0-30l-320-318 320-319q15-15 0-30l-146-146q-8-6-15-6z" horiz-adv-x="1000" />
<glyph glyph-name="glyph-30" unicode="&#xe81e;" d="m500 788q207 0 354-147t146-353-146-354-354-147-354 147-146 354 146 353 354 147z m0-834q138 0 236 98t97 236-97 235-236 98-235-98-98-235 98-236 235-98z m-167 334q0-70 49-119t118-48q68 0 118 48t49 119q0 68-49 117t-118 49q-69 0-118-49t-49-117z" horiz-adv-x="1000" />
<glyph glyph-name="glyph-31" unicode="&#xe81f;" d="m1000 288q0-208-146-354t-354-147-354 147-146 354 146 353 354 147 354-147 146-353z" horiz-adv-x="1000" />
<glyph glyph-name="glyph-32" unicode="&#xe820;" d="m1000 163q0-103-73-177t-177-74h-531q-90 0-155 65t-64 154q0 82 54 144t134 73v2q0 130 91 221t221 92q115 0 201-74t107-183q83-20 138-88t54-155z" horiz-adv-x="1000" />
<glyph glyph-name="glyph-33" unicode="&#xe821;" d="m861 201l-346-348q-8-5-15-5-9 0-15 5l-346 348q-81 81-115 164t-21 154 66 124q79 79 191 79t191-79q29-29 49-65 20 36 49 65 78 80 191 80t192-80q53-53 66-124t-22-154-115-164z" horiz-adv-x="1000" />
<glyph glyph-name="glyph-34" unicode="&#xe822;" d="m1000 737v-574q0-92-63-160t-156-85q-90-18-154 18t-64 106 64 134 154 81q49 10 85 10h30v250l-458-104v-375q0-92-64-160t-155-85q-90-18-155 18t-64 106 65 134 154 81q48 10 84 10h30v449q0 25 18 48t44 28l544 119q25 6 43-9t18-40z" horiz-adv-x="1000" />
<glyph glyph-name="glyph-35" unicode="&#xe823;" d="m875 711v-454q0-10-12-18-65-35-144-35-71 0-219 42t-219 42q-5 0-16-1t-15-1v-478q0-9-6-15t-15-6h-83q-9 0-15 6t-6 15v926q0 12 10 18 65 36 146 36 71 0 219-42t219-42q69 0 127 27 12 4 20-2 9-6 9-18z" horiz-adv-x="1000" />
<glyph glyph-name="glyph-36" unicode="&#xe824;" d="m870 230l96-84q12-8 6-22-29-89-95-164-9-12-22-6l-120 42q-46-37-100-58l-24-125q-2-14-16-16-50-10-95-10t-95 10q-14 2-16 16l-24 125q-57 22-100 58l-120-42q-13-6-22 6-66 75-95 164-6 14 6 22l96 84q-5 24-5 58t5 57l-96 84q-12 8-6 22 29 89 95 164 9 12 22 6l120-42q43 36 100 58l24 125q2 14 16 16 95 20 190 0 14-2 16-16l24-125q54-21 100-58l120 42q13 6 22-6 66-75 95-164 6-14-6-22l-96-84q5-24 5-57t-5-58z m-370-130q78 0 133 55t55 133-55 132-133 55-132-55-55-132q0-79 54-134t133-54z" horiz-adv-x="1000" />
<glyph glyph-name="glyph-37" unicode="&#xe825;" d="m988-62q27-52-3-101-31-50-89-50h-792q-58 0-89 50-29 48-5 101l396 792q30 58 94 58 65 0 93-58z m-550 579v-354h125v354h-125z m62-625q35 0 59 24t24 59-24 59-59 24-59-24-24-59 24-59 59-24z" horiz-adv-x="1000" />
<glyph glyph-name="glyph-38" unicode="&#xe826;" d="m500 788q207 0 354-147t146-353-146-354-354-147-354 147-146 354 146 353 354 147z m-375-625h750v250h-750v-250z" horiz-adv-x="1000" />
<glyph glyph-name="glyph-39" unicode="&#xe827;" d="m500 225l-500 375q0 26 19 44t44 19h875q25 0 44-19t18-44z m0-112l500 375v-513q0-26-18-44t-44-19h-875q-26 0-44 19t-19 44v513z" horiz-adv-x="1000" />
<glyph glyph-name="glyph-40" unicode="&#xe828;" d="m813 413l-188 187-515-515q-2-2-5-7l-104-262q-5-14 5-23 8-6 15-6 5 0 8 2l262 104q4 2 7 4z m169 258q18-20 18-45t-18-44l-107-107-187 188 106 106q19 19 44 19t45-19z" horiz-adv-x="1000" />
<glyph glyph-name="glyph-41" unicode="&#xe829;" d="m188 163l515 515q3 3 7 4l261 104q2 2 8 2 7 0 15-6 10-9 5-23l-104-262q-1-3-5-7l-515-515z m-169-259q-19 19-19 45t19 44l106 107 188-188-107-106q-18-19-44-19t-45 19z" horiz-adv-x="1000" />
<glyph glyph-name="glyph-42" unicode="&#xe82a;" d="m994 502l-604-605q-8-5-15-5t-15 5l-354 355q-15 15 0 30l146 146q15 15 30 0l193-195 443 445q15 15 30 0l146-146q15-15 0-30z" horiz-adv-x="1000" />
<glyph glyph-name="glyph-43" unicode="&#xe82b;" d="m500 788q206 0 353-147t147-353q0-208-146-354t-354-147-354 147-146 354 146 353 354 147z m0-876q35 0 59 25t24 59-24 59-59 24-59-24-24-59 24-59 59-25z m63 292q0 16 17 31t42 30 48 34 42 53 17 81q0 92-66 150t-163 59q-56 0-108-26t-76-53l-24-25 83-84q7 7 19 18t45 27 61 18q45 0 75-26t29-58q0-27-26-50t-57-38-57-47-26-73v-42h125v21z" horiz-adv-x="1000" />
<glyph glyph-name="glyph-44" unicode="&#xe82c;" d="m536 761l458-458q6-9 6-15t-6-15l-458-459q-9-9-23-5-13 6-13 20v271h-479q-9 0-15 6t-6 15v333q0 9 6 15t15 6h479v271q0 14 13 20 14 4 23-5z" horiz-adv-x="1000" />
<glyph glyph-name="glyph-45" unicode="&#xe82d;" d="m529 141l-176-178 140-140q7-4 7-15 0-9-6-15t-15-6h-458q-9 0-15 6t-6 15v459q0 14 13 19 14 5 23-4l140-141 177 175q15 16 29 0l147-147q7-4 7-15 0-8-7-13z m471 626v-459q0-14-13-19-2-1-8-1-7 0-15 5l-140 142-177-178q-6-5-14-5-9 0-15 5l-148 149q-14 13 0 29l177 177-141 140q-9 9-5 23 6 13 20 13h458q9 0 15-6t6-15z" horiz-adv-x="1000" />
<glyph glyph-name="glyph-46" unicode="&#xe82e;" d="m464-186l-458 459q-6 8-6 15t6 15l458 458q9 9 23 5 13-6 13-20v-271h479q9 0 15-6t6-15v-333q0-9-6-15t-15-6h-479v-271q0-14-13-20-14-4-23 5z" horiz-adv-x="1000" />
<glyph glyph-name="glyph-47" unicode="&#xe82f;" d="m27 323l458 459q8 6 15 6t15-6l458-459q10-9 5-23-6-12-20-12h-270v-480q0-9-6-15t-15-6h-334q-9 0-15 6t-5 15v480h-271q-14 0-20 12-5 14 5 23z" horiz-adv-x="1000" />
<glyph glyph-name="glyph-48" unicode="&#xe830;" d="m973 252l-458-459q-8-6-15-6t-15 6l-458 459q-10 9-5 23 6 13 20 13h271v479q0 9 5 15t15 6h334q9 0 15-6t6-15v-479h270q14 0 20-13 5-14-5-23z" horiz-adv-x="1000" />
<glyph glyph-name="glyph-49" unicode="&#xe831;" d="m131 178l361 360-215 214q-10 9-5 23 6 13 20 13h687q9 0 15-6t6-15v-688q0-14-13-19-14-5-23 4l-214 215-360-361q-15-15-30 0l-229 230q-15 15 0 30z" horiz-adv-x="1000" />
<glyph glyph-name="glyph-50" unicode="&#xe832;" d="m869 178q15-15 0-30l-229-230q-15-15-30 0l-360 361-214-215q-9-9-23-4-13 5-13 19v688q0 9 6 15t15 6h687q14 0 20-13 5-14-5-23l-215-214z" horiz-adv-x="1000" />
<glyph glyph-name="glyph-51" unicode="&#xe833;" d="m131 398q-15 15 0 30l229 229q15 15 30 0l360-361 214 215q9 9 23 5 13-6 13-20v-688q0-9-6-15t-15-6h-687q-14 0-20 13-5 14 5 23l215 215z" horiz-adv-x="1000" />
<glyph glyph-name="glyph-52" unicode="&#xe834;" d="m869 398l-361-360 215-215q10-9 5-23-6-13-20-13h-687q-9 0-15 6t-6 15v688q0 14 13 20 14 4 23-5l214-215 360 361q15 15 30 0l229-229q15-15 0-30z" horiz-adv-x="1000" />
<glyph glyph-name="glyph-53" unicode="&#xe835;" d="m811 175q-5-12-19-12h-261l146-298q11-19-9-28l-94-47q-18-11-28 9l-144 299-179-180q-8-6-15-6-5 0-8 2-12 5-12 19v834q0 14 12 19 14 5 23-4l584-584q9-9 4-23z" horiz-adv-x="1000" />
<glyph glyph-name="glyph-54" unicode="&#xe836;" d="m625 788q155 0 265-110t110-265-110-265-265-110q-110 0-200 57l-283-283q-24-25-59-25t-59 25-24 59 24 59l284 282q-58 91-58 201 0 155 110 265t265 110z m208-438v125h-145v146h-125v-146h-146v-125h146v-146h125v146h145z" horiz-adv-x="1000" />
<glyph glyph-name="glyph-55" unicode="&#xe837;" d="m625 788q155 0 265-110t110-265-110-265-265-110q-110 0-200 57l-283-283q-24-25-59-25t-59 25-24 59 24 59l284 282q-58 91-58 201 0 155 110 265t265 110z m208-313h-416v-125h416v125z" horiz-adv-x="1000" />
<glyph glyph-name="glyph-56" unicode="&#xe838;" d="m994 273l-187-188q-8-6-15-6-6 0-8 1-13 6-13 20v104h-188v-187h105q13 0 19-13 5-14-4-23l-188-188q-8-6-15-6t-15 6l-187 188q-10 9-5 23 6 13 20 13h104v187h-188v-104q0-14-13-20-2-1-8-1-7 0-15 6l-187 188q-15 15 0 30l187 187q10 9 23 5 13-6 13-20v-104h188v187h-104q-14 0-20 13-5 14 5 23l187 188q15 15 30 0l188-188q9-9 4-23-6-13-19-13h-105v-187h188v104q0 14 13 20 14 4 23-5l187-187q15-15 0-30z" horiz-adv-x="1000" />
<glyph glyph-name="glyph-57" unicode="&#xe839;" d="m302 277l-192-192q-2-2-5-7l-104-262q-5-14 5-23 8-6 15-6 5 0 8 2l262 104q4 2 7 4l192 193z m618-410q18 18 18 43t-18 43l-283 284 176 176-188 187-176-176-285 285q-18 17-43 17t-42-17q-18-19-18-44t18-42l756-756q17-17 42-17t43 17z m62 804q18-20 18-45t-18-44l-107-107-187 188 106 106q19 19 44 19t45-19z" horiz-adv-x="1000" />
<glyph glyph-name="glyph-58" unicode="&#xe83a;" d="m938 788q9 0 15-6t5-15v-84q0-9-5-15t-15-5h-875q-10 0-15 5t-6 15v84q0 9 6 15t15 6h875z m-813-209h750l-62-773q-3-19-21-19h-584q-18 0-20 19z" horiz-adv-x="1000" />
<glyph glyph-name="glyph-59" unicode="&#xe83b;" d="m19 154q-19 19-19 45t19 45l538 538q6 6 14 6h367q25 0 44-19t18-44v-367q0-8-6-14l-538-538q-18-19-44-19t-45 19z m669 415q0-40 27-67t66-27 67 27 27 67-27 66-67 28-66-28-27-66z" horiz-adv-x="1000" />
<glyph glyph-name="glyph-60" unicode="&#xe83c;" d="m500-152q-9 0-15 5l-346 348q-81 81-115 164t-21 154 66 124q79 79 191 79t191-79q29-29 49-65v-730z" horiz-adv-x="500" />
<glyph glyph-name="glyph-61" unicode="&#xe83d;" d="m500-29l-280-180q-12-8-23 0-12 7-9 21l61 323-243 242q-10 9-5 23 6 13 20 13h319l140 361q6 14 20 14v-817z" horiz-adv-x="500" />
<glyph glyph-name="glyph-62" unicode="&#xe83e;" d="m583 204l-166 167-334-333q-20-21-20-63t-21-63l-36-35q-15-15 0-29l54-55q14-15 29 0l35 36 1 1q21 20 63 20t62 21z m-41 334l207 207q43 43 103 43t105-43q43-44 43-105t-43-104l-207-207 57-55q15-15 0-30l-56-55q-15-15-29 0l-320 321q-15 14 0 29l54 55q15 15 30 0z" horiz-adv-x="1000" />
<glyph glyph-name="glyph-63" unicode="&#xe83f;" d="m813-108h-167v-84q0-9 6-15t15-6h125q9 0 15 6t6 15v84z m-792 708q-9 0-15-6t-6-15v-125q0-9 6-15t15-6h83v167h-83z m958-458q9 0 15-6t6-15v-125q0-9-6-15t-15-6h-771q-9 0-15 6t-5 15v771q0 9 5 15t15 6h125q10 0 15-6t6-15v-167h438q9 0 15-6t6-15v-437h166z m-625 0h292v291h-292v-291z" horiz-adv-x="1000" />
<glyph glyph-name="glyph-64" unicode="&#xe840;" d="m750 600v-104h-458q-52 0-89-37t-36-88v-271h-104q-26 0-44 19t-19 44v437q0 26 19 44t44 19h625q25 0 44-19t18-44z m250-250v-375q0-26-18-44t-44-19h-625q-26 0-44 19t-19 44v396q0 17 12 29t30 13h646q25 0 44-19t18-44z" horiz-adv-x="1000" />
<glyph glyph-name="glyph-65" unicode="&#xe841;" d="m564-47q-198-135-437-164-3-2-8-2-6 0-8 2-7 3-11 11l-99 248q-6 18 11 27l273 136q11 7 24-3z m436 715q0-4-1-8-42-333-276-574l197-196q18-18 18-43t-18-42-43-18-42 18l-756 756q-18 17-18 42t18 43q17 18 42 18t43-18l440-441q62 64 109 140l-133 134q-11 12-4 24l137 273q8 16 27 10l247-98q8-5 11-12 2-4 2-8z" horiz-adv-x="1000" />
<glyph glyph-name="glyph-66" unicode="&#xe842;" d="m313-56q0-65-46-111t-111-46-110 46-46 111 46 110 110 46 111-46 46-110z m687-136q0-9-6-15t-15-6h-146q-9 0-15 6t-5 15q0 161-63 308t-168 253-253 169-308 62q-9 0-15 6t-6 15v146q0 9 6 15t15 6q266 0 491-132t357-356 131-492z m-312 0q0-9-6-15t-15-6h-146q-9 0-15 6t-6 15q0 199-140 340t-339 140q-9 0-15 5t-6 15v146q0 9 6 15t15 6q135 0 259-53t213-142 142-213 53-259z" horiz-adv-x="1000" />
<glyph glyph-name="glyph-67" unicode="&#xe843;" d="m563 600q25 0 44-18t18-44v-500q0-26-18-45t-44-18h-500q-26 0-44 18t-19 45v500q0 25 19 44t44 18h500z m437-21v-583q0-14-13-20-2-1-8-1-7 0-15 6l-261 263q-19 18-19 44t19 44l261 262q9 10 23 5 13-6 13-20z" horiz-adv-x="1000" />
<glyph glyph-name="glyph-68" unicode="&#xe844;" d="m1000 764l-125-958q-2-12-12-16-9-6-18 0l-318 158-115-152q-6-9-16-9-5 0-7 2-14 3-14 19v209q0 8 5 12l455 586-592-510q-6-5-14-5-4 0-9 2l-208 105q-12 5-12 17 0 13 10 20l959 541q11 6 22-1 11-7 9-20z" horiz-adv-x="1000" />
<glyph glyph-name="glyph-69" unicode="&#xe845;" d="m292-108q0 44 30 74t74 30 74-30 30-74-30-74-74-31-74 31-30 74z m333 0q0 44 30 74t74 30 74-30 30-74-30-74-74-31-74 31-30 74z m374 683l-127-427q-6-21-22-35t-39-13h-498q-22 0-39 13t-22 35l-127 515h-62q-26 0-44 18t-19 44 19 44 44 19h111q22 0 39-14t22-34l35-140h709q11 0 16-8 7-7 4-17z" horiz-adv-x="1000" />
<glyph glyph-name="glyph-70" unicode="&#xe846;" d="m875 225q0-182-128-310t-309-128-310 128-128 310 128 310 310 128v-438h437z m125 104q0-9-6-15t-15-6h-458v459q0 9 6 15t15 6q190 0 324-135t134-324z" horiz-adv-x="1000" />
<glyph glyph-name="glyph-71" unicode="&#xe847;" d="m521-213h-5q-16 5-16 21v480h-479q-16 0-21 16-2 17 12 23l958 458q13 6 24-3 10-12 4-25l-459-958q-5-12-18-12z" horiz-adv-x="1000" />
<glyph glyph-name="glyph-72" unicode="&#xe848;" d="m866-209q-5-4-12-4-9 0-14 5l-340 308-340-308q-13-10-26-1-14 9-8 24l354 959q6 14 20 14t20-14l354-959q6-15-8-24z" horiz-adv-x="1000" />
<glyph glyph-name="glyph-73" unicode="&#xe849;" d="m994 148l-104-105q-8-5-15-5h-792q-9 0-15 5t-5 15v209q0 9 5 15t15 6h334v104h166v-104h292q7 0 15-6l104-104q15-15 0-30z m-56 556v-208q0-9-6-15t-15-6h-792q-7 0-15 6l-104 104q-15 15 0 30l104 104q8 6 15 6h292v42q0 9 6 15t15 6h125q9 0 15-6t5-15v-42h334q9 0 15-6t6-15z m-355-750v-146q0-9-5-15t-15-6h-125q-10 0-15 6t-6 15v146h166z" horiz-adv-x="1000" />
<glyph glyph-name="glyph-74" unicode="&#xe84a;" d="m991 678q9-6 9-17v-708q0-16-15-20l-312-103q-2-1-6-1-6 0-8 1l-327 122-305-102q-10-4-19 2-8 8-8 18v456q13 10 44 29l-44 71v152q0 14 14 20l312 105q7 1 14 0l327-124 305 102q12 4 19-3z m-879-287q57 23 111 33l-15 82q-68-12-128-39z m301 31l19 81q-67 14-134 13l2-84q59 0 113-10z m172-79l50 66q-55 43-118 67l-31-76q57-24 99-57z m56-51q20-22 37-44t23-35 6-12l38 18 37 18q-28 57-79 112z m172-297q34 0 59 24t24 59-24 59-59 24-59-24-25-59 25-59 59-24z" horiz-adv-x="1000" />
<glyph glyph-name="glyph-75" unicode="&#xe84b;" d="m500 788q138 0 236-98t97-236q0-87-42-163l-272-493q-6-11-19-11t-18 11l-272 493q-43 73-43 163 0 138 98 236t235 98z m0-459q52 0 89 37t36 88-36 89-89 36-88-36-37-89 37-88 88-37z" horiz-adv-x="1000" />
<glyph glyph-name="glyph-76" unicode="&#xe84c;" d="m875 79v-146q0-54-112-100t-263-46-263 46-112 100v146q131-83 375-83t375 83z m0 292v-167q0-52-110-88t-265-37-265 37-110 88v167q131-83 375-83t375 83z m0 292v-167q0-52-110-89t-265-36-265 36-110 89v167q0 52 110 88t265 37 265-37 110-88z" horiz-adv-x="1000" />
<glyph glyph-name="glyph-77" unicode="&#xe84d;" d="m938 163q25 0 44-19t18-44v-250q0-26-18-44t-44-19h-875q-26 0-44 19t-19 44v250q0 26 19 44t44 19h875z m-375-251q25 0 44 19t18 44-18 44-44 19-44-19-19-44 19-44 44-19z m250 0q25 0 44 19t18 44-18 44-44 19-44-19-19-44 19-44 44-19z m103 822l74-497q-26 9-52 9h-875q-27 0-53-9l73 497q4 23 22 39t41 15h708q23 0 41-15t21-39z" horiz-adv-x="1000" />
<glyph glyph-name="glyph-78" unicode="&#xe84e;" d="m938 725q25 0 44-18t18-44v-625q0-26-18-45t-44-18h-103l-125 125h165v500h-750v-500h166l-125-125h-103q-26 0-44 18t-19 45v625q0 25 19 44t44 18h875z m-146-875q14 0 19 13 5 14-4 23l-292 292q-15 15-30 0l-292-292q-9-9-4-23 5-13 19-13h584z" horiz-adv-x="1000" />
<glyph glyph-name="glyph-79" unicode="&#xe84f;" d="m354-213h-333q-9 0-15 6t-6 15v959q0 9 6 15t15 6h333q9 0 15-6t6-15v-959q0-9-6-15t-15-6z m625 0h-333q-9 0-15 6t-6 15v959q0 9 6 15t15 6h333q9 0 15-6t6-15v-959q0-9-6-15t-15-6z" horiz-adv-x="1000" />
<glyph glyph-name="glyph-80" unicode="&#xe850;" d="m0 767q0 9 6 15t15 6h208q9 0 15-6t6-15v-209q0-9-6-15t-15-5h-208q-9 0-15 5t-6 15v209z m375 0q0 9 6 15t15 6h208q9 0 15-6t6-15v-209q0-9-6-15t-15-5h-208q-9 0-15 5t-6 15v209z m375 0q0 9 6 15t15 6h208q9 0 15-6t6-15v-209q0-9-6-15t-15-5h-208q-9 0-15 5t-6 15v209z m-750-375q0 9 6 15t15 6h208q9 0 15-6t6-15v-209q0-9-6-15t-15-5h-208q-9 0-15 5t-6 15v209z m375 0q0 9 6 15t15 6h208q9 0 15-6t6-15v-209q0-9-6-15t-15-5h-208q-9 0-15 5t-6 15v209z m375 0q0 9 6 15t15 6h208q9 0 15-6t6-15v-209q0-9-6-15t-15-5h-208q-9 0-15 5t-6 15v209z m-750-375q0 9 6 15t15 6h208q9 0 15-6t6-15v-209q0-9-6-15t-15-6h-208q-9 0-15 6t-6 15v209z m375 0q0 9 6 15t15 6h208q9 0 15-6t6-15v-209q0-9-6-15t-15-6h-208q-9 0-15 6t-6 15v209z m375 0q0 9 6 15t15 6h208q9 0 15-6t6-15v-209q0-9-6-15t-15-6h-208q-9 0-15 6t-6 15v209z" horiz-adv-x="1000" />
<glyph glyph-name="glyph-81" unicode="&#xe851;" d="m1000 392v-209q0-9-6-15t-15-5h-958q-9 0-15 5t-6 15v209q0 9 6 15t15 6h958q9 0 15-6t6-15z m0 375v-209q0-9-6-15t-15-5h-958q-9 0-15 5t-6 15v209q0 9 6 15t15 6h958q9 0 15-6t6-15z m0-750v-209q0-9-6-15t-15-6h-958q-9 0-15 6t-6 15v209q0 9 6 15t15 6h958q9 0 15-6t6-15z" horiz-adv-x="1000" />
<glyph glyph-name="glyph-82" unicode="&#xe852;" d="m396 788h208q9 0 15-6t6-15v-959q0-9-6-15t-15-6h-208q-9 0-15 6t-6 15v959q0 9 6 15t15 6z m-375 0h208q9 0 15-6t6-15v-959q0-9-6-15t-15-6h-208q-9 0-15 6t-6 15v959q0 9 6 15t15 6z m750 0h208q9 0 15-6t6-15v-959q0-9-6-15t-15-6h-208q-9 0-15 6t-6 15v959q0 9 6 15t15 6z" horiz-adv-x="1000" />
<glyph glyph-name="glyph-83" unicode="&#xe853;" d="m417 350h-396q-9 0-15 6t-6 15v396q0 9 6 15t15 6h396q9 0 15-6t6-15v-396q0-9-6-15t-15-6z m562 0h-396q-9 0-15 6t-5 15v396q0 9 5 15t15 6h396q9 0 15-6t6-15v-396q0-9-6-15t-15-6z m-562-563h-396q-9 0-15 6t-6 15v396q0 9 6 15t15 6h396q9 0 15-6t6-15v-396q0-9-6-15t-15-6z m562 0h-396q-9 0-15 6t-5 15v396q0 9 5 15t15 6h396q9 0 15-6t6-15v-396q0-9-6-15t-15-6z" horiz-adv-x="1000" />
<glyph glyph-name="glyph-84" unicode="&#xe854;" d="m997-20q3-4 3-12v-97q0-9-6-15t-15-6h-958q-9 0-15 6t-6 15v97q0 8 4 12l59 89v594q0 25 18 44t44 18h750q26 0 44-18t19-44v-594z m-809 620v-500h625v500h-625z" horiz-adv-x="1000" />
<glyph glyph-name="glyph-85" unicode="&#xe855;" d="m813 788q25 0 44-19t18-44v-875q0-26-18-44t-44-19h-625q-26 0-44 19t-19 44v875q0 26 19 44t44 19h625z m-63-876v751h-500v-751h500z" horiz-adv-x="1000" />
<glyph glyph-name="glyph-86" unicode="&#xe856;" d="m625 538v-500h-562q-26 0-44 18t-19 44v375q0 26 19 44t44 19h562z m375-146v-209q0-9-6-15t-15-5h-104v-63q0-25-18-44t-44-18h-63v500h63q25 0 44-19t18-44v-62h104q9 0 15-6t6-15z" horiz-adv-x="1000" />
<glyph glyph-name="glyph-87" unicode="&#xe857;" d="m438 538v-500h-375q-26 0-44 18t-19 44v375q0 26 19 44t44 19h375z m562-146v-209q0-9-6-15t-15-5h-104v-63q0-25-18-44t-44-18h-63v500h63q25 0 44-19t18-44v-62h104q9 0 15-6t6-15z" horiz-adv-x="1000" />
<glyph glyph-name="glyph-88" unicode="&#xe858;" d="m250 538v-500h-187q-26 0-44 18t-19 44v375q0 26 19 44t44 19h187z m750-146v-209q0-9-6-15t-15-5h-104v-63q0-25-18-44t-44-18h-63v500h63q25 0 44-19t18-44v-62h104q9 0 15-6t6-15z" horiz-adv-x="1000" />
<glyph glyph-name="glyph-89" unicode="&#xe859;" d="m125 538v-500h-62q-26 0-44 18t-19 44v375q0 26 19 44t44 19h62z m875-146v-209q0-9-6-15t-15-5h-104v-63q0-25-18-44t-44-18h-63v500h63q25 0 44-19t18-44v-62h104q9 0 15-6t6-15z" horiz-adv-x="1000" />
<glyph glyph-name="glyph-90" unicode="&#xe85a;" d="m1000 163q0-103-73-177t-177-74h-211l216 215q9 9 4 23-5 13-19 13h-157v210h-166v-210h-157q-13 0-19-13-5-14 4-23l216-215h-242q-90 0-155 65t-64 154q0 82 54 144t134 73v2q0 130 91 221t221 92q115 0 201-74t107-183q83-20 138-88t54-155z" horiz-adv-x="1000" />
<glyph glyph-name="glyph-91" unicode="&#xe85b;" d="m917-213h-834q-9 0-15 6t-5 15v125q0 10 5 15t15 6h834q9 0 15-6t6-15v-125q0-9-6-15t-15-6z m15 673l-417-417q-8-5-15-5t-15 5l-417 417q-9 9-4 23 5 13 19 13h230v271q0 9 5 15t15 6h334q9 0 15-6t6-15v-271h229q14 0 19-13 5-14-4-23z" horiz-adv-x="1000" />
<glyph glyph-name="glyph-92" unicode="&#xe85c;" d="m1000 163q0-103-73-177t-177-74h-167v188h157q14 0 19 13 5 14-4 23l-255 253-255-253q-9-9-4-23 6-13 19-13h157v-188h-198q-90 0-155 65t-64 154q0 82 54 144t134 73v2q0 130 91 221t221 92q115 0 201-74t107-183q83-20 138-88t54-155z" horiz-adv-x="1000" />
<glyph glyph-name="glyph-93" unicode="&#xe85d;" d="m917-213h-834q-9 0-15 6t-5 15v125q0 10 5 15t15 6h834q9 0 15-6t6-15v-125q0-9-6-15t-15-6z m-849 578l417 417q8 6 15 6t15-6l417-417q9-9 4-23-5-13-19-13h-229v-271q0-9-6-15t-15-5h-334q-9 0-15 5t-5 15v271h-230q-14 0-19 13-5 14 4 23z" horiz-adv-x="1000" />
<glyph glyph-name="glyph-94" unicode="&#xe85e;" d="m807 740l187-187q6-9 6-15t-6-15l-187-188q-9-9-23-5-13 6-13 20v104h-198q-31 0-50-25l-106-141 106-142q19-25 50-25h198v104q0 14 13 20 14 4 23-5l187-187q6-9 6-15t-6-15l-187-188q-9-9-23-5-13 6-13 20v104h-199q-114 0-182 90l-101 135q-18 25-49 25h-219q-9 0-15 6t-6 15v125q0 9 6 15t15 6h219q31 0 49 25l101 135q68 90 182 90h199v104q0 14 13 20 14 4 23-5z" horiz-adv-x="1000" />
<glyph glyph-name="glyph-95" unicode="&#xe85f;" d="m994 273l-187-188q-8-6-15-6-6 0-8 1-13 6-13 20v104h-156q-32 0-50-25l-101-135q-68-90-182-90h-261q-9 0-15 6t-6 15v125q0 9 6 15t15 6h260q32 0 50 25l101 135q1 1 3 3t3 4q-2 1-3 3t-3 3l-101 135q-18 25-50 25h-260q-9 0-15 6t-6 15v125q0 9 6 15t15 6h261q114 0 182-90l101-135q18-25 50-25h156v104q0 14 13 20 14 4 23-5l187-187q15-15 0-30z" horiz-adv-x="1000" />
<glyph glyph-name="glyph-96" unicode="&#xe860;" d="m950 201v0q-31-161-158-267t-292-105q-177 0-309 120l-155-156q-8-6-15-6-6 0-8 2-13 5-13 19v396q0 9 6 15t15 6h396q14 0 19-13 5-14-4-23l-123-121q81-72 191-72 100 0 177 60t104 154q4 15 20 15h128q12 0 17-8 5-8 4-16z m-900 173v0q30 160 157 266t293 106q177 0 309-120l155 156q8 6 15 6 6 0 8-2 13-5 13-19v-396q0-9-6-15t-15-6h-396q-14 0-19 13-5 14 4 23l123 121q-81 72-191 72-99 0-177-60t-104-154q-4-15-20-15h-128q-11 0-17 7-5 10-4 17z" horiz-adv-x="1000" />
<glyph glyph-name="glyph-97" unicode="&#xe861;" d="m583 704v-146q0-34-24-59t-59-24-59 24-24 59v146q0 35 24 59t59 25 59-25 24-59z m0-687v-146q0-35-24-59t-59-25-59 25-24 59v146q0 34 24 59t59 24 59-24 24-59z m-270 271q0-35-25-59t-59-25h-146q-34 0-59 25t-24 59 24 59 59 24h146q35 0 59-24t25-59z m687 0q0-35-24-59t-59-25h-146q-35 0-59 25t-24 59 24 59 59 24h146q34 0 59-24t24-59z m-633 133q-24-26-59-26t-58 26l-104 103q-24 24-24 58t24 59q25 25 59 25t59-25l103-103q25-25 25-59t-25-58z m486-488q-24-24-58-24t-59 24l-103 105q-25 24-25 58t25 58q24 26 59 26t58-26l103-103q26-24 26-58t-26-60z m0 591l-103-103q-24-26-58-26t-59 26q-25 24-25 58t25 59l103 103q24 25 59 25t58-25q26-25 26-59t-26-58z m-486-486l-103-105q-24-24-59-24t-59 24q-24 26-24 60t24 58l104 103q24 26 58 26t59-26q25-24 25-58t-25-58z" horiz-adv-x="1000" />
<glyph glyph-name="glyph-98" unicode="&#xe862;" d="m993 408l-88-88q-2-2-7-5t-8-2q-8 0-14 7-156 155-376 155t-376-155q-5-7-14-7-3 0-8 2t-7 5l-88 88q-14 14 0 29 134 134 314 182t358 0 314-182q14-15 0-29z m-191-192l-88-88q-2-2-7-5-2-1-8-1-9 0-15 6-76 76-184 76t-184-76q-8-6-15-6-6 0-8 1-5 3-7 5l-88 88q-15 15 0 30 125 125 302 125t302-125q15-15 0-30z m-192-191l-95-96q-15-15-30 0l-96 96q-14 15 0 29 46 46 111 46t110-46q15-14 0-29z" horiz-adv-x="1000" />
<glyph glyph-name="glyph-99" unicode="&#xe863;" d="m1000 621q0-45-23-84t-60-61v-188q0-35-25-59t-59-25h-188q-22-38-61-61t-84-22-84 22-61 61h-105v-105q38-22 61-61t22-84q0-69-49-118t-117-49q-70 0-118 49t-49 118q0 45 23 84t60 61v189q0 34 25 59t59 24h188q22 38 61 61t84 22 84-22 61-61h105v105q-38 22-61 61t-22 84q0 68 48 117t118 50q69 0 118-50t49-117z" horiz-adv-x="1000" />
<glyph glyph-name="glyph-100" unicode="&#xe864;" d="m938 767v-146q0-9-6-15t-15-6h-292v-792q0-9-6-15t-15-6h-208q-9 0-15 6t-6 15v792h-292q-9 0-15 6t-5 15v146q0 9 5 15t15 6h834q9 0 15-6t6-15z" horiz-adv-x="1000" />
<glyph glyph-name="glyph-101" unicode="&#xe865;" d="m999-185q3-10-2-19-9-9-18-9h-208q-16 0-20 14l-55 174h-396l-56-174q-3-14-19-14h-204q-9 0-17 9-6 9-3 19l327 959q3 14 19 14h306q14 0 20-14z m-640 348h276l-137 434z" horiz-adv-x="1000" />
<glyph glyph-name="glyph-102" unicode="&#xe866;" d="m167-4v-125q0-9-6-15t-15-6h-125q-9 0-15 6t-6 15v125q0 9 6 15t15 6h125q9 0 15-6t6-15z m0 354v-125q0-9-6-15t-15-6h-125q-9 0-15 6t-6 15v125q0 9 6 15t15 6h125q9 0 15-6t6-15z m0 354v-125q0-9-6-15t-15-6h-125q-9 0-15 6t-6 15v125q0 9 6 15t15 6h125q9 0 15-6t6-15z m833-708v-125q0-9-6-15t-15-6h-708q-9 0-15 6t-6 15v125q0 9 6 15t15 6h708q9 0 15-6t6-15z m0 354v-125q0-9-6-15t-15-6h-708q-9 0-15 6t-6 15v125q0 9 6 15t15 6h708q9 0 15-6t6-15z m0 354v-125q0-9-6-15t-15-6h-708q-9 0-15 6t-6 15v125q0 9 6 15t15 6h708q9 0 15-6t6-15z" horiz-adv-x="1000" />
<glyph glyph-name="glyph-103" unicode="&#xe867;" d="m292 454v-646q0-9-6-15t-15-6h-250q-9 0-15 6t-6 15v625q0 10 6 15t15 6h271z m708-21v-625q0-9-6-15t-15-6h-583q-9 0-15 6t-6 15v646h604q9 0 15-6t6-15z m0 334v-209q0-9-6-15t-15-5h-958q-9 0-15 5t-6 15v209q0 9 6 15t15 6h958q9 0 15-6t6-15z" horiz-adv-x="1000" />
<glyph glyph-name="glyph-104" unicode="&#xe868;" d="m688 65l125 86v-134q0-51-37-88t-88-37h-563q-51 0-88 37t-37 88v500q0 51 37 88t88 37h354v-51q-113-18-192-74h-162v-500h563v48z m303 344q9-7 9-17 0-12-9-18l-396-270q-5-4-12-4-4 0-9 2-11 6-11 19v147q-68-1-124-11t-88-21-58-27-33-22-12-13l-1-1q-6-10-18-10h-4q-14 3-17 19 0 140 84 228 92 100 271 106v147q0 12 11 18 12 7 21-1z" horiz-adv-x="1000" />
<glyph glyph-name="glyph-105" unicode="&#xe869;" d="m1000 308q0-9-6-15t-15-5h-458q-9 0-15 5t-6 15v459q0 14 13 19 14 5 23-4l140-141 141 141q14 15 29 0l148-148q15-15 0-29l-141-142 140-140q7-4 7-15z m-1000-41q0 9 6 15t15 6h458q9 0 15-6t6-15v-459q0-14-13-19-14-5-23 4l-140 141-141-141q-14-15-29 0l-148 148q-15 15 0 29l141 142-140 140q-7 5-7 15z" horiz-adv-x="1000" />
<glyph glyph-name="glyph-106" unicode="&#xe86a;" d="m875 767v-959q0-9-6-15t-15-6h-708q-9 0-15 6t-6 15v396h188v-156q0-14 12-20 12-4 23 5l254 255-254 254q-10 9-23 4-12-4-12-19v-156h-188v396q0 9 6 15t15 6h708q9 0 15-6t6-15z" horiz-adv-x="1000" />
<glyph glyph-name="glyph-107" unicode="&#xe86b;" d="m500 788q207 0 354-147t146-353-146-354-354-147-354 147-146 354 146 353 354 147z m0-375l-81-420q-2-11-2-18 0-35 24-59t59-24 59 24 24 59v438h-83z m271-125h125q0 164-116 280t-280 115q-161 0-277-112t-119-274q4 134 101 229t233 95q137 0 235-98t98-235z" horiz-adv-x="1000" />
<glyph glyph-name="glyph-108" unicode="&#xe86c;" d="m938 788q25 0 44-19t18-44v-875q0-26-18-44t-44-19h-875q-26 0-44 19t-19 44v875q0 26 19 44t44 19h83v-125q0-26 18-44t44-19 44 19 19 44v125h458v-125q0-26 19-44t44-19 44 19 18 44v125h84z m-230-688v125h-145v146h-125v-146h-146v-125h146v-146h125v146h145z" horiz-adv-x="1000" />
<glyph glyph-name="glyph-109" unicode="&#xe86d;" d="m938 788q25 0 44-19t18-44v-875q0-26-18-44t-44-19h-875q-26 0-44 19t-19 44v875q0 26 19 44t44 19h83v-125q0-26 18-44t44-19 44 19 19 44v125h458v-125q0-26 19-44t44-19 44 19 18 44v125h84z m-230-688v125h-416v-125h416z" horiz-adv-x="1000" />
<glyph glyph-name="glyph-110" unicode="&#xe86e;" d="m938 788q25 0 44-19t18-44v-875q0-26-18-44t-44-19h-875q-26 0-44 19t-19 44v875q0 26 19 44t44 19h83v-125q0-26 18-44t44-19 44 19 19 44v125h458v-125q0-26 19-44t44-19 44 19 18 44v125h84z m-500-839l335 336-88 88-247-247-123 122-88-88z" horiz-adv-x="1000" />
<glyph glyph-name="glyph-111" unicode="&#xe86f;" d="m938 788q25 0 44-19t18-44v-875q0-26-18-44t-44-19h-875q-26 0-44 19t-19 44v875q0 26 19 44t44 19h83v-125q0-26 18-44t44-19 44 19 19 44v125h458v-125q0-26 19-44t44-19 44 19 18 44v125h84z m-250-730l-105 105 105 104-84 83-104-104-104 104-83-83 104-104-104-105 83-83 104 104 104-104z" horiz-adv-x="1000" />
<glyph glyph-name="glyph-112" unicode="&#xe870;" d="m0 121q0 7 6 15l479 479q15 15 30 0l479-479q15-15 0-30l-146-146q-15-15-30 0l-318 318-318-318q-15-15-30 0l-146 146q-6 8-6 15z" horiz-adv-x="1000" />
<glyph glyph-name="glyph-113" unicode="&#xe871;" d="m1000 454q0-7-6-15l-479-479q-15-15-30 0l-479 479q-15 15 0 30l146 146q15 15 30 0l318-319 318 319q15 15 30 0l146-146q6-8 6-15z" horiz-adv-x="1000" />
<glyph glyph-name="glyph-114" unicode="&#xe872;" d="m781-67q0-9-6-15t-15-6h-447q-79 0-134 55t-54 133v188h-104q-14 0-20 12-5 14 5 23l187 188q15 15 30 0l188-188q9-9 5-23-6-12-20-12h-104v-188q0-9 6-15t15-6h322q10 0 16-6l126-126q4-4 4-14z m213 319l-187-188q-8-6-15-6t-15 6l-188 188q-9 9-4 23 5 13 19 13h104v187q0 9-5 15t-15 6h-323q-10 0-15 6l-127 126q-4 4-4 14t6 15 15 6h448q77 0 132-55t55-133v-187h104q14 0 20-13 5-14-5-23z" horiz-adv-x="1000" />
<glyph glyph-name="glyph-115" unicode="&#xe873;" d="m938 663q25 0 44-19t18-44v-625q0-26-18-44t-44-19h-875q-26 0-44 19t-19 44v625q0 26 19 44t44 19h875z m-719-125q-40 0-67-28t-27-66 27-67 67-27 66 27 28 67-28 66-66 28z m656-500l-250 375-229-292-146 104-125-187h750z" horiz-adv-x="1000" />
<glyph glyph-name="glyph-116" unicode="&#xe874;" d="m500 788q207 0 354-147t146-353-146-354-354-147-354 147-146 354 146 353 354 147z m63-896q55 0 121 75t66 175q0 60-43 103t-103 43h-83q-46 0-75 20t-29 52q0 22 15 38t37 15 40-21 33-21q17 0 29 12t12 30q0 41-39 81 38 72 39 163 0 18-17 21-37 5-66 5-134-4-213-64t-79-165q0-94 68-161t162-68h3q-3-16-3-31 0-48 29-85t75-47v-150q0-9 6-15t15-5z" horiz-adv-x="1000" />
<glyph glyph-name="glyph-117" unicode="&#xe875;" d="m313 371v229q0 78 55 133t132 55 133-55 55-133v-229q0-78-55-133t-133-55q-79 0-133 55t-54 133z m583 0q0-147-96-258t-237-133v-172q0-9-6-15t-15-6h-84q-9 0-15 6t-5 15v172q-143 23-238 133t-96 258q0 25 19 44t44 18 44-18 18-44q0-112 79-192t192-79 192 79 79 192q0 25 18 44t44 18 44-18 19-44z" horiz-adv-x="1000" />
<glyph glyph-name="glyph-118" unicode="&#xe876;" d="m997 299q8-11 0-23-10-13-26-35t-68-77-107-98-136-77-160-35-159 33-138 81-105 95-70 81l-24 32q-9 12 0 23 9 13 25 35t68 77 107 98 136 77 160 35 159-33 137-80 105-93 69-79l24-33z m-497-199q78 0 133 55t55 133-55 132-133 55-132-55-55-132q0-79 54-134t133-54z" horiz-adv-x="1000" />
<glyph glyph-name="glyph-119" unicode="&#xe877;" d="m167-192q0-9-6-15t-15-6h-125q-9 0-15 6t-6 15v584q0 9 6 15t15 6h125q9 0 15-6t6-15v-584z m833 344q0-60-54-86 12-23 12-49 0-34-19-61t-51-38q8-16 8-37 0-39-27-66t-67-28h-219q-62 0-119 26l-214 99v438q178 119 235 197t57 178q0 26 18 44t44 19q37 0 69-47 35-50 35-120 0-35-9-80t-20-72-11-28q-4-10 2-19t18-9h218q40 0 67-28t27-66q0-58-51-84 51-27 51-83z" horiz-adv-x="1000" />
<glyph glyph-name="glyph-120" unicode="&#xe878;" d="m167 767v-584q0-9-6-15t-15-5h-125q-9 0-15 5t-6 15v584q0 9 6 15t15 6h125q9 0 15-6t6-15z m833-344q0-58-51-83 51-28 51-84 0-39-27-66t-67-27h-218q-12 0-18-10t-2-19q1-2 10-28t20-72 10-80q0-69-35-121-33-46-69-46-25 0-44 19t-18 44q0 101-57 178t-235 197v438l214 99q57 26 119 26h219q39 0 67-28t27-66q0-21-8-37 31-11 51-38t19-61q0-27-12-49 54-26 54-86z" horiz-adv-x="1000" />
<glyph glyph-name="glyph-121" unicode="&#xe879;" d="m1000-150v-42q0-9-6-15t-15-6h-958q-9 0-15 6t-6 15v42q0 58 39 98t94 62 110 43 93 53 39 77q-5 5-13 15t-30 44-39 72-30 99-13 125q0 103 74 176t176 74 177-74 73-176q0-64-13-124t-31-100-37-71-31-46l-13-14q0-45 39-77t94-53 110-43 93-62 39-98z" horiz-adv-x="1000" />
<glyph glyph-name="glyph-122" unicode="&#xe87a;" d="m1000 100v-42q0-9-6-15t-15-5h-400q-22 6-40 15t-23 15l-7 4q8 13 21 36t33 96 20 146q0 34-8 66t-19 54-24 38-20 25l-8 8v1q-4 28-4 58 0 78 55 133t133 55 132-55 55-133q0-76-21-143t-41-95l-21-28q0-36 21-60t52-37 62-29 52-41 21-67z m-375-250v-42q0-9-6-15t-15-6h-583q-9 0-15 6t-6 15v42q0 39 21 67t53 41 61 29 52 37 21 60q-9 10-23 31t-37 89-23 146q0 78 55 133t133 55 132-55 55-133q0-76-21-143t-41-95l-21-28q0-36 21-60t52-37 62-29 52-41 21-67z" horiz-adv-x="1000" />
<glyph glyph-name="glyph-123" unicode="&#xe87b;" d="m1000-150v-42q0-9-6-15t-15-6h-958q-9 0-15 6t-6 15v42q0 58 39 98t94 62 110 43 93 53 39 77q-56 0-102 21t-67 42l-18 21q2 1 6 6t15 23 19 47 15 79 7 116q0 103 74 176t176 74 177-74 73-176q0-64 6-116t16-79 19-46 15-24l7-6q-7-10-21-23t-63-37-104-24q0-45 39-77t94-53 110-43 93-62 39-98z" horiz-adv-x="1000" />
<glyph glyph-name="glyph-124" unicode="&#xe87c;" d="m500-213q-138 0-235 98t-98 236q0 90 43 163l272 493q5 11 18 11t19-11l272-493q42-76 42-163 0-138-97-236t-236-98z" horiz-adv-x="1000" />
<glyph glyph-name="glyph-125" unicode="&#xe87d;" d="m1000 319q0-169-146-288t-354-119q-40 0-84 6-131-131-270-131-14 0-20 13-4 14 5 23 7 7 18 21t31 57 26 89q-96 57-151 143t-55 186q0 169 146 287t354 119 354-119 146-287z" horiz-adv-x="1000" />
<glyph glyph-name="glyph-126" unicode="&#xe87e;" d="m500 788q207 0 354-147t146-353-146-354-354-147-354 147-146 354 146 353 354 147z m63-808q79 12 133 57t54 126q0 63-28 103t-69 54-90 22-91 10-69 17-28 44q0 30 37 46t88 16q83 0 167-42l62 105q-60 45-166 59v66h-125v-68q-80-12-134-57t-54-125q0-64 28-104t69-54 91-22 90-10 69-17 28-43q0-31-37-47t-88-16q-83 0-167 42l-62-104q60-46 167-60v-66h125v68z" horiz-adv-x="1000" />
<glyph glyph-name="glyph-127" unicode="&#xe87f;" d="m1000 600v-62h-1000v62q0 26 19 44t44 19h875q25 0 44-19t18-44z m-1000-250h1000v-375q0-26-18-44t-44-19h-875q-26 0-44 19t-19 44v375z" horiz-adv-x="1000" />
<glyph glyph-name="glyph-128" unicode="&#xe880;" d="m938 788q25 0 44-19t18-44v-687q0-26-18-45t-44-18h-313v-60l175-88q13-4 13-19 0-9-6-15t-15-6h-584q-16 0-20 17-3 16 11 23l176 88v60h-312q-26 0-44 18t-19 45v687q0 26 19 44t44 19h875z m-63-688v563h-750v-563h750z" horiz-adv-x="1000" />
<glyph glyph-name="glyph-129" unicode="&#xe881;" d="m938 538q25 0 44-19t18-44v-500q0-26-18-44t-44-19h-875q-26 0-44 19t-19 44v500q0 26 19 44t44 19h250v104q0 47 49 66 44 17 138 17 95 0 138-17 50-19 50-66v-104h250z m-521 83v-83h166v83h-166z" horiz-adv-x="1000" />
<glyph glyph-name="glyph-130" unicode="&#xe882;" d="m0-25v625q0 26 19 44t44 19h361q14 0 27-10t18-24l31-91h438q25 0 44-19t18-44v-500q0-26-18-44t-44-19h-875q-26 0-44 19t-19 44z" horiz-adv-x="1000" />
<glyph glyph-name="glyph-131" unicode="&#xe883;" d="m875 454v-604q0-26-18-44t-44-19h-625q-26 0-44 19t-19 44v875q0 26 19 44t44 19h354q7 0 15-6l312-313q6-8 6-15z" horiz-adv-x="1000" />
<glyph glyph-name="glyph-132" unicode="&#xe884;" d="m938 788q25 0 44-19t18-44v-875q0-26-18-44t-44-19h-875q-26 0-44 19t-19 44v875q0 26 19 44t44 19h83v-125q0-26 18-44t44-19 44 19 19 44v125h458v-125q0-26 19-44t44-19 44 19 18 44v125h84z m-625-855v167h-167v-167h167z m0 292v167h-167v-167h167z m270-292v167h-166v-167h166z m0 292v167h-166v-167h166z m271-292v167h-166v-167h166z m0 292v167h-166v-167h166z" horiz-adv-x="1000" />
<glyph glyph-name="glyph-133" unicode="&#xe885;" d="m396 788h208q9 0 15-6t6-15v-959q0-9-6-15t-15-6h-208q-9 0-15 6t-6 15v959q0 9 6 15t15 6z m-375-500h208q9 0 15-6t6-15v-459q0-9-6-15t-15-6h-208q-9 0-15 6t-6 15v459q0 9 6 15t15 6z m750 250h208q9 0 15-6t6-15v-709q0-9-6-15t-15-6h-208q-9 0-15 6t-6 15v709q0 9 6 15t15 6z" horiz-adv-x="1000" />
<glyph glyph-name="glyph-134" unicode="&#xe886;" d="m500 121q-35 0-62 5v-297q0-5 1-11t18-19 43-12 43 11 17 21l3 10v297q-28-5-63-5z m0 667q120 0 206-86t86-206-86-206-206-86-206 86-86 206 86 206 206 86z m73-313q39 0 67 27t27 67-27 66-67 28-67-28-27-66 27-67 67-27z" horiz-adv-x="1000" />
<glyph glyph-name="glyph-135" unicode="&#xe887;" d="m829 410l3 4q43 43 43 103t-43 103-103 43-103-43l-458-459q-43-42-43-103t43-103 103-43 103 43l281 280q12 13 12 31t-12 28-29 12-30-12l-177-175q-18-19-44-19t-44 19-18 44 18 44l176 177q50 48 119 48t117-48q49-50 49-119t-49-117l-281-282q-79-79-191-79t-192 79q-79 80-79 192t79 191l458 459q80 80 192 80t191-80q80-79 80-191t-80-192l-45-46q-3 71-46 131z" horiz-adv-x="1000" />
<glyph glyph-name="glyph-136" unicode="&#xe888;" d="m875 788q26 0 44-19t19-44v-875q0-26-19-44t-44-19h-625q-25 0-44 19t-18 44v62h-105q-9 0-15 6t-5 15v84q0 9 5 15t15 6h105v187h-105q-9 0-15 6t-5 15v83q0 9 5 15t15 6h105v188h-105q-9 0-15 5t-5 15v84q0 9 5 15t15 6h105v62q0 26 18 44t44 19h625z m-125-438v188h-375v-188h375z" horiz-adv-x="1000" />
<glyph glyph-name="glyph-137" unicode="&#xe889;" d="m875 767v-104h-625v-125h604q9 0 15-6t6-15v-709q0-9-6-15t-15-6h-604q-52 0-88 37t-37 88v751q0 52 37 88t88 37h604q9 0 15-6t6-15z" horiz-adv-x="1000" />
<glyph glyph-name="glyph-138" unicode="&#xe88a;" d="m438-213q-7 0-15 6-46 45-104 80t-107 53-96 30-70 15-27 4q-19 2-19 21v771q0 9 7 15 5 6 15 6 47 0 151-33 172-53 280-161 5-8 5-15v-771q0-14-12-19-3-2-8-2z m125 0q-6 0-9 2-12 5-12 19v771q0 7 6 15 111 109 280 161 103 33 149 33 8 0 16-6 7-6 7-15v-771q0-19-20-21-4 0-27-4t-70-15-96-30-107-53-102-80q-9-6-15-6z" horiz-adv-x="1000" />
<glyph glyph-name="glyph-139" unicode="&#xe88b;" d="m994 636l-56-57-146 146 56 57q15 15 29 0l117-117q15-14 0-29z m-306-432v-292h-563v626h354l125 125h-479q-51 0-88-37t-37-88v-626q0-50 37-88t88-37h563q50 0 88 37t37 88v417z m41 459l-435-436q-3-3-3-5l-84-201-1-1q-3-11 6-21 6-7 14-7 1 0 3 1t4 0l1 2 200 83q2 0 6 4l435 435z" horiz-adv-x="1000" />
<glyph glyph-name="glyph-140" unicode="&#xe88c;" d="m1000 668q0-4-1-8-43-341-287-585t-585-286q-3-2-8-2-6 0-8 2-7 3-11 11l-99 248q-6 18 11 27l273 136q11 7 24-3l133-135q166 103 271 272l-133 134q-11 12-4 24l137 273q8 16 27 10l247-98q8-5 11-12 2-4 2-8z" horiz-adv-x="1000" />
<glyph glyph-name="glyph-141" unicode="&#xe88d;" d="m1000-150q0-26-18-44t-44-19h-875q-26 0-44 19t-19 44v500q0 26 19 44t44 19h104v-209h666v209h105q25 0 44-19t18-44v-500z m-125 125q0 26-18 44t-44 19-44-19-19-44 19-44 44-19 44 19 18 44z m-625 313v479q0 9 6 15t15 6h458q9 0 15-6t6-15v-479h-500z" horiz-adv-x="1000" />
<glyph glyph-name="glyph-142" unicode="&#xe88e;" d="m999 172q1-4 1-9v-313q0-26-18-44t-44-19h-875q-26 0-44 19t-19 44v313q0 5 1 9l84 562q2 23 20 39t41 15h708q23 0 41-15t21-39z m-799 491l-74-500h204q14 0 20-13l40-100q6-12 20-12h180q14 0 20 12l41 100q5 13 19 13h204l-74 500h-600z" horiz-adv-x="1000" />
<glyph glyph-name="glyph-143" unicode="&#xe88f;" d="m997 495q3-8 3-20v-625q0-26-18-44t-44-19h-875q-26 0-44 19t-19 44v625q0 12 4 20l83 250q6 18 22 30t37 13h708q20 0 37-13t22-30z m-868-20h743l-63 188h-618z" horiz-adv-x="1000" />
<glyph glyph-name="glyph-144" unicode="&#xe890;" d="m750 788q26 0 44-19t19-44v-875q0-26-19-44t-44-19h-500q-25 0-44 19t-18 44v875q0 26 18 44t44 19h500z m-250-938q26 0 44 18t19 44-19 44-44 19-44-19-18-44 18-44 44-18z m208 188v583h-416v-583h416z" horiz-adv-x="1000" />
<glyph glyph-name="glyph-145" unicode="&#xe891;" d="m938 538q25 0 44-19t18-44v-500q0-26-18-44t-44-19h-875q-26 0-44 19t-19 44v500q0 26 19 44t44 19h187l30 91q6 14 19 24t27 10h348q14 0 27-10t18-24l31-91h188z m-438-500q78 0 133 55t55 132-55 133-133 55-132-55-55-133q0-79 54-133t133-54z" horiz-adv-x="1000" />
<glyph glyph-name="glyph-146" unicode="&#xe892;" d="m1000 579v-583q0-14-13-20-2-1-8-1-7 0-15 6l-214 215v-158q0-26-18-45t-44-18h-625q-26 0-44 18t-19 45v500q0 25 19 44t44 18h625q25 0 44-18t18-44v-159l214 215q9 10 23 5 13-6 13-20z" horiz-adv-x="1000" />
<glyph glyph-name="glyph-147" unicode="&#xe893;" d="m340 499l-104-139-51 69q-18 25-50 25h-114q-9 0-15 6t-6 15v125q0 9 6 15t15 6h116q113 0 181-90z m654-476l-187-188q-8-6-15-6-6 0-8 1-13 6-13 20v104h-116q-113 0-182 90l-23 32 104 139 53-69q18-25 49-25h115v104q0 14 13 20 14 4 23-5l187-187q15-15 0-30z m0 500l-187-188q-8-6-15-6-6 0-8 1-13 6-13 20v104h-115q-31 0-49-25l-289-385q-68-90-181-90h-116q-9 0-15 6t-6 15v125q0 9 6 15t15 6h114q32 0 50 25l288 385q69 90 182 90h116v104q0 14 13 20 14 4 23-5l187-187q15-15 0-30z" horiz-adv-x="1000" />
<glyph glyph-name="glyph-148" unicode="&#xe894;" d="m786 553q15-15 0-30l-188-188q-9-9-23-5-12 6-12 20v104h-230q-69 0-118-49t-48-117q0-58 36-103 10-14-2-28l-90-89q-4-6-14-6t-15 7q-82 95-82 219 0 137 98 235t235 98h230v104q0 14 12 20 14 4 23-5z m-572-530q-15 15 0 30l188 187q9 9 23 5 13-6 13-20v-104h229q68 0 117 48t49 119q0 57-35 103-12 13 1 26l90 90q5 6 14 6t15-7q82-95 82-218 0-138-98-236t-235-98h-229v-104q0-14-13-20-14-4-23 5z" horiz-adv-x="1000" />
<glyph glyph-name="glyph-149" unicode="&#xe895;" d="m688 683v-791q0-14-13-20-14-5-23 5l-224 223h-157q-9 0-15 6t-6 15v333q0 9 6 15t15 6h157l224 223q9 10 23 5 13-6 13-20z" horiz-adv-x="1000" />
<glyph glyph-name="glyph-150" unicode="&#xe896;" d="m758-44q-15-13-29 0l-59 58q-14 17 0 30 101 101 101 244t-101 243q-15 13 0 29l59 59q14 13 29 0 90-91 122-211t0-241-122-211z m-227 727v-791q0-14-12-20-14-5-24 5l-223 223h-157q-8 0-15 6t-6 15v333q0 9 6 15t15 6h157l223 223q10 10 24 5 12-6 12-20z" horiz-adv-x="1000" />
<glyph glyph-name="glyph-151" unicode="&#xe897;" d="m766-206l-59 58q-14 16 0 30 110 110 149 258t0 295-149 258q-15 14 0 29l59 59q14 13 29 0 134-135 182-314t0-359-182-314q-15-13-29 0z m-133 162q-15-13-29 0l-59 58q-14 17 0 30 101 101 101 244t-101 243q-15 13 0 29l59 59q14 13 29 0 90-91 122-211t0-241-122-211z m-227 727v-791q0-14-12-20-14-5-24 5l-223 223h-157q-9 0-15 6t-6 15v333q0 9 6 15t15 6h157l223 223q10 10 24 5 12-6 12-20z" horiz-adv-x="1000" />
<glyph glyph-name="glyph-152" unicode="&#xe898;" d="m1000 392v-209q0-9-6-15t-15-5h-104v-63q0-25-18-44t-44-18h-750q-26 0-44 18t-19 44v375q0 26 19 44t44 19h750q25 0 44-19t18-44v-62h104q9 0 15-6t6-15z" horiz-adv-x="1000" />
<glyph glyph-name="glyph-153" unicode="&#xe899;" d="m625 788q155 0 265-110t110-265-110-265-265-110q-110 0-200 57l-283-283q-24-25-59-25t-59 25-24 59 24 59l284 282q-58 91-58 201 0 155 110 265t265 110z m0-625q103 0 177 73t73 177-73 176-177 74-176-74-74-176 74-177 176-73z" horiz-adv-x="1000" />
<glyph glyph-name="glyph-154" unicode="&#xe89a;" d="m167-213h-146q-9 0-15 6t-6 15v158q0 9 6 15l388 388q-19 48-19 106 0 130 91 221t222 92 221-92 91-221-91-221-221-91q-58 0-107 18l-138-138q-5-5-15-5h-115v-105q0-9-6-15t-15-6h-104v-104q0-9-6-15t-15-6z m583 844q-39 0-67-27t-27-66 27-67 67-27 67 27 27 67-27 66-67 27z" horiz-adv-x="1000" />
<glyph glyph-name="glyph-155" unicode="&#xe89b;" d="m813 350q25 0 44-18t18-44v-438q0-26-18-44t-44-19h-625q-26 0-44 19t-19 44v438q0 25 19 44t44 18h62v188q0 103 74 176t176 74 177-74 73-176v-188h63z m-438 188v-188h250v188q0 52-36 88t-89 37-88-37-37-88z" horiz-adv-x="1000" />
<glyph glyph-name="glyph-156" unicode="&#xe89c;" d="m875 246v292q0 52-36 88t-89 37-88-37-37-88v-188h63q25 0 44-18t18-44v-438q0-26-18-44t-44-19h-625q-26 0-44 19t-19 44v438q0 25 19 44t44 18h437v188q0 103 74 176t176 74 177-74 73-176v-292q0-9-6-15t-15-6h-83q-9 0-15 6t-6 15z" horiz-adv-x="1000" />
<glyph glyph-name="glyph-157" unicode="&#xe89d;" d="m396-108h208q0-44-30-74t-74-31-74 31-30 74z m603 96q-6-13-20-13h-958q-14 0-20 13-5 14 5 23l182 180v284q0 130 91 221t221 92 221-92 92-221v-284l181-180q10-9 5-23z" horiz-adv-x="1000" />
<glyph glyph-name="glyph-158" unicode="&#xe89e;" d="m396-108h208q0-44-30-74t-74-31-74 31-30 74z m-208 500l416-417h-583q-14 0-20 13-5 14 5 23l182 180v201z m795-587q-18-18-43-18t-43 18l-880 880q-17 17-17 42t17 43q18 18 43 18t43-18l131-132q43 69 113 109t153 41q130 0 221-92t92-221v-284l181-180q10-9 5-23-6-13-20-13h-82l86-85q17-18 17-43t-17-42z" horiz-adv-x="1000" />
<glyph glyph-name="glyph-159" unicode="&#xe89f;" d="m750 725v-917q0-14-13-19-2-2-8-2-7 0-15 6l-214 214-214-214q-9-9-23-4-13 5-13 19v917q0 26 19 44t44 19h375q25 0 44-19t18-44z" horiz-adv-x="1000" />
<glyph glyph-name="glyph-160" unicode="&#xe8a0;" d="m920 325l-141-142q7 80-21 155l74 76q43 43 43 103t-43 103-103 43-103-43l-156-155q-43-43-43-103t43-105q18-18 18-44t-18-44-44-18-44 18q-79 80-79 193t79 191l155 155q80 80 192 80t191-80q80-79 80-191t-80-192z m-302-302l-156-157q-79-79-191-79t-192 79q-79 80-79 192t79 191l142 143q-7-81 21-157l-74-74q-43-42-43-103t43-103 103-43 103 43l155 155q43 43 43 103t-43 103q-19 19-19 45t19 45 45 18 44-18q79-80 79-193t-79-190z" horiz-adv-x="1000" />
<glyph glyph-name="glyph-161" unicode="&#xe8a1;" d="m1000 288q0-208-146-354t-354-147-354 147-146 354 146 353 354 147 354-147 146-353z m-833 0q0-100 52-179l459 460q-78 52-178 52-138 0-235-98t-98-235z m614 178l-459-460q79-52 178-52 138 0 236 98t97 236q0 99-52 178z" horiz-adv-x="1000" />
<glyph glyph-name="glyph-162" unicode="&#xe8a2;" d="m0 788h1000v-1001h-1000v1001z m787-125h-574l287-287z m-662-88v-574l287 287z m88-663h574l-287 288z m662 89v574l-287-287z" horiz-adv-x="1000" />
<glyph glyph-name="glyph-163" unicode="&#xe8a3;" d="m0 788h1000v-1001h-1000v1001z m787-125h-574l287-287z m-662-88v-574l287 287z m88-663h574l-287 288z m662 89v574l-287-287z" horiz-adv-x="1000" />
</font>
</defs>
</svg>
